<?xml version="1.0" standalone="no"?>
<!DOCTYPE svg PUBLIC "-//W3C//DTD SVG 20010904//EN"
 "http://www.w3.org/TR/2001/REC-SVG-20010904/DTD/svg10.dtd">
<svg version="1.0" xmlns="http://www.w3.org/2000/svg"
 width="512.000000pt" height="512.000000pt" viewBox="0 0 512.000000 512.000000"
 preserveAspectRatio="xMidYMid meet">
<metadata>
Created by potrace 1.11, written by Peter Selinger 2001-2013
</metadata>
<g transform="translate(0.000000,512.000000) scale(0.100000,-0.100000)"
fill="#000000" stroke="none">
<path d="M0 2560 l0 -2560 1250 0 1250 0 0 1220 0 1220 -720 0 -720 0 0 120 0
120 720 0 720 0 0 570 0 570 -720 0 -720 0 0 120 0 120 720 0 720 0 0 530 0
530 -1250 0 -1250 0 0 -2560z m2060 690 l0 -120 -500 0 -500 0 0 120 0 120
500 0 500 0 0 -120z m0 -1380 l0 -120 -500 0 -500 0 0 120 0 120 500 0 500 0
0 -120z m0 -690 l0 -120 -500 0 -500 0 0 120 0 120 500 0 500 0 0 -120z"/>
<path d="M2620 4590 l0 -530 720 0 720 0 0 -120 0 -120 -720 0 -720 0 0 -570
0 -570 220 0 220 0 0 -120 0 -120 -220 0 -220 0 0 -1220 0 -1220 1250 0 1250
0 0 2560 0 2560 -1250 0 -1250 0 0 -530z m1440 -1340 l0 -120 -500 0 -500 0 0
120 0 120 500 0 500 0 0 -120z m0 -1380 l0 -120 -500 0 -500 0 0 120 0 120
500 0 500 0 0 -120z m0 -690 l0 -120 -500 0 -500 0 0 120 0 120 500 0 500 0 0
-120z"/>
</g>
</svg>
