<?xml version="1.0" encoding="UTF-8"?>
<svg width="249px" height="54px" viewBox="0 0 249 54" version="1.1" xmlns="http://www.w3.org/2000/svg" xmlns:xlink="http://www.w3.org/1999/xlink">
    <title>Group</title>
    <g id="Page" stroke="none" stroke-width="1" fill="none" fill-rule="evenodd">
        <g id="Assets" transform="translate(-16.000000, -320.000000)">
            <g id="Group" transform="translate(16.000000, 320.000000)">
                <path d="M76.8196721,42.4754098 L76.8196721,32.8454333 L82.2529274,32.8454333 L88.1733021,42.4754098 L96.0796253,42.4754098 L88.9976581,31.4964871 C90.7962529,30.6471507 92.1764247,29.4418423 93.1381733,27.8805621 C94.0999219,26.3192818 94.5807963,24.4894614 94.5807963,22.3911007 C94.5807963,20.29274 94.0936768,18.4566745 93.1194379,16.882904 C92.1451991,15.3091335 90.7338017,14.0913349 88.8852459,13.2295082 C87.1027099,12.398461 84.9949816,11.9680973 82.5620609,11.9384171 L82.2903981,11.9367681 L70,11.9367681 L70,42.4754098 L76.8196721,42.4754098 Z M81.9906323,26.8126464 L76.8196721,26.8126464 L76.8196721,17.969555 L81.9906323,17.969555 C83.8142077,17.969555 85.2318501,18.3505074 86.2435597,19.1124122 C87.2552693,19.8743169 87.7611241,20.9672131 87.7611241,22.3911007 C87.7611241,23.8149883 87.2552693,24.9078845 86.2435597,25.6697892 C85.2679826,26.4044831 83.9149501,26.7849496 82.1844621,26.8111886 L81.9906323,26.8126464 Z M109.344262,43 C111.092896,43 112.716628,42.7002342 114.215457,42.1007026 C115.714286,41.501171 116.9758,40.6705699 118,39.6088993 C118.975428,38.5977845 119.656302,37.4337279 120.042622,36.1167296 L120.098361,35.9180328 L113.391101,35.9180328 C113.116315,36.442623 112.610461,36.8610461 111.873536,37.1733021 C111.136612,37.4855582 110.293521,37.6416862 109.344262,37.6416862 C108.095238,37.6416862 107.046058,37.2919594 106.196721,36.5925059 C105.384313,35.9234633 104.84617,34.9915827 104.582293,33.7968639 L104.548009,33.6323185 L120.622951,33.6323185 C120.722873,32.9328649 120.772834,32.2209212 120.772834,31.4964871 C120.772834,29.2982045 120.285714,27.3247463 119.311475,25.5761124 C118.337237,23.8274785 116.982045,22.459797 115.245902,21.4730679 C113.509758,20.4863388 111.542545,19.9929742 109.344262,19.9929742 C107.14598,19.9929742 105.178767,20.4863388 103.442623,21.4730679 C101.706479,22.459797 100.351288,23.8274785 99.3770492,25.5761124 C98.4028103,27.3247463 97.9156909,29.2982045 97.9156909,31.4964871 C97.9156909,33.6947697 98.4028103,35.6682279 99.3770492,37.4168618 C100.351288,39.1654957 101.706479,40.5331772 103.442623,41.5199063 C105.178767,42.5066354 107.14598,43 109.344262,43 Z M114.252927,29.323185 L104.510539,29.323185 C104.785324,27.9992194 105.334895,26.9937549 106.159251,26.3067916 C106.983607,25.6198283 108.045277,25.2763466 109.344262,25.2763466 C110.643247,25.2763466 111.717408,25.6198283 112.566745,26.3067916 C113.380692,26.9651314 113.930805,27.9159836 114.217083,29.1593482 L114.252927,29.323185 Z M131.377049,42.4754098 L131.377049,30.559719 C131.42701,28.9859485 131.745511,27.7868852 132.332553,26.9625293 C132.919594,26.1381733 133.750195,25.7259953 134.824356,25.7259953 C136.0484,25.7259953 136.972678,26.1693989 137.59719,27.0562061 C138.197682,27.9089053 138.509476,29.1253643 138.532572,30.7055832 L138.533958,30.8969555 L138.533958,42.4754098 L145.203747,42.4754098 L145.203747,30.559719 C145.253708,28.9859485 145.572209,27.7868852 146.159251,26.9625293 C146.746292,26.1381733 147.576893,25.7259953 148.651054,25.7259953 C149.875098,25.7259953 150.799375,26.1693989 151.423888,27.0562061 C152.02438,27.9089053 152.336174,29.1253643 152.35927,30.7055832 L152.360656,30.8969555 L152.360656,42.4754098 L159.030445,42.4754098 L159.030445,29.7728337 C159.030445,27.774395 158.680718,26.0382514 157.981265,24.5644028 C157.281811,23.0905543 156.295082,21.9601874 155.021077,21.1733021 C153.747073,20.3864169 152.273224,19.9929742 150.599532,19.9929742 C148.95082,19.9929742 147.526932,20.2552693 146.327869,20.7798595 C145.128806,21.3044496 144.117096,22.0913349 143.29274,23.1405152 C142.568306,22.1163154 141.644028,21.3356753 140.519906,20.7985948 C139.395785,20.2615144 138.14676,19.9929742 136.772834,19.9929742 C135.57377,19.9929742 134.543326,20.2053084 133.681499,20.6299766 C132.870368,21.0296643 132.142217,21.6395685 131.497046,22.459689 L131.377049,22.6159251 L131.377049,20.5175644 L124.70726,20.5175644 L124.70726,42.4754098 L131.377049,42.4754098 Z M174.056206,43 C176.279469,43 178.277908,42.5066354 180.051522,41.5199063 C181.825137,40.5331772 183.211553,39.1654957 184.210773,37.4168618 C185.209992,35.6682279 185.709602,33.6947697 185.709602,31.4964871 C185.709602,29.2982045 185.209992,27.3247463 184.210773,25.5761124 C183.211553,23.8274785 181.825137,22.459797 180.051522,21.4730679 C178.277908,20.4863388 176.279469,19.9929742 174.056206,19.9929742 C171.832943,19.9929742 169.834504,20.4863388 168.06089,21.4730679 C166.287276,22.459797 164.900859,23.8274785 163.901639,25.5761124 C162.90242,27.3247463 162.40281,29.2982045 162.40281,31.4964871 C162.40281,33.6947697 162.90242,35.6682279 163.901639,37.4168618 C164.900859,39.1654957 166.287276,40.5331772 168.06089,41.5199063 C169.834504,42.5066354 171.832943,43 174.056206,43 Z M174.056206,37.3044496 C172.507416,37.3044496 171.252147,36.7611241 170.290398,35.6744731 C169.328649,34.587822 168.847775,33.19516 168.847775,31.4964871 C168.847775,29.7978142 169.328649,28.4051522 170.290398,27.3185012 C171.252147,26.2318501 172.507416,25.6885246 174.056206,25.6885246 C175.604996,25.6885246 176.860265,26.2318501 177.822014,27.3185012 C178.783763,28.4051522 179.264637,29.7978142 179.264637,31.4964871 C179.264637,33.19516 178.783763,34.587822 177.822014,35.6744731 C176.860265,36.7611241 175.604996,37.3044496 174.056206,37.3044496 Z M200.135831,43 C202.908665,43 205.281811,42.2318501 207.255269,40.6955504 C209.172343,39.2031449 210.429361,37.2333776 211.026323,34.7862486 L211.077283,34.5690867 L204.332553,34.5690867 C204.032787,35.3684621 203.514442,36.0054645 202.777518,36.4800937 C202.040593,36.9547229 201.160031,37.1920375 200.135831,37.1920375 C198.587041,37.1920375 197.344262,36.6612022 196.407494,35.5995316 C195.470726,34.537861 195.002342,33.1701795 195.002342,31.4964871 C195.002342,29.8227947 195.470726,28.4551132 196.407494,27.3934426 C197.344262,26.3317721 198.587041,25.8009368 200.135831,25.8009368 C201.160031,25.8009368 202.028103,26.0320062 202.740047,26.4941452 C203.410112,26.9290995 203.886556,27.5023541 204.16938,28.2139089 L204.220141,28.3489461 L210.964871,28.3489461 C210.715066,26.8001561 210.090554,25.3887588 209.091335,24.1147541 C208.092116,22.8407494 206.818111,21.8352849 205.269321,21.0983607 C203.720531,20.3614364 202.009368,19.9929742 200.135831,19.9929742 C197.912568,19.9929742 195.91413,20.4863388 194.140515,21.4730679 C192.366901,22.459797 190.980484,23.8274785 189.981265,25.5761124 C188.982045,27.3247463 188.482436,29.2982045 188.482436,31.4964871 C188.482436,33.6947697 188.982045,35.6682279 189.981265,37.4168618 C190.980484,39.1654957 192.366901,40.5331772 194.140515,41.5199063 C195.91413,42.5066354 197.912568,43 200.135831,43 Z M221.344262,42.4754098 L221.344262,11 L214.674473,11 L214.674473,42.4754098 L221.344262,42.4754098 Z M236.669789,43 C238.418423,43 240.042155,42.7002342 241.540984,42.1007026 C243.039813,41.501171 244.301327,40.6705699 245.325527,39.6088993 C246.300955,38.5977845 246.981829,37.4337279 247.368149,36.1167296 L247.423888,35.9180328 L240.716628,35.9180328 C240.441842,36.442623 239.935988,36.8610461 239.199063,37.1733021 C238.462139,37.4855582 237.619048,37.6416862 236.669789,37.6416862 C235.420765,37.6416862 234.371585,37.2919594 233.522248,36.5925059 C232.709839,35.9234633 232.171697,34.9915827 231.90782,33.7968639 L231.873536,33.6323185 L247.948478,33.6323185 C248.0484,32.9328649 248.098361,32.2209212 248.098361,31.4964871 C248.098361,29.2982045 247.611241,27.3247463 246.637002,25.5761124 C245.662763,23.8274785 244.307572,22.459797 242.571429,21.4730679 C240.835285,20.4863388 238.868072,19.9929742 236.669789,19.9929742 C234.471507,19.9929742 232.504294,20.4863388 230.76815,21.4730679 C229.032006,22.459797 227.676815,23.8274785 226.702576,25.5761124 C225.728337,27.3247463 225.241218,29.2982045 225.241218,31.4964871 C225.241218,33.6947697 225.728337,35.6682279 226.702576,37.4168618 C227.676815,39.1654957 229.032006,40.5331772 230.76815,41.5199063 C232.504294,42.5066354 234.471507,43 236.669789,43 Z M241.578454,29.323185 L231.836066,29.323185 C232.110851,27.9992194 232.660422,26.9937549 233.484778,26.3067916 C234.309133,25.6198283 235.370804,25.2763466 236.669789,25.2763466 C237.968774,25.2763466 239.042935,25.6198283 239.892272,26.3067916 C240.706219,26.9651314 241.256332,27.9159836 241.54261,29.1593482 L241.578454,29.323185 Z" id="Shape" fill="#FFFFFF" fill-rule="nonzero"></path>
                <rect id="Rectangle" fill="#333333" x="0" y="0" width="54" height="54" rx="12"></rect>
                <g id="Group-3" transform="translate(11.500000, 0.000000)" fill-rule="nonzero">
                    <polygon id="Path" fill="#FFD600" points="30 14.5 30 11.5 0 11.5 0 14.5"></polygon>
                    <g id="Group-2" transform="translate(0.000000, 18.500000)">
                        <polygon id="Path" fill="#FFD600" points="10 3 10 0 0 0 0 3"></polygon>
                        <polygon id="Path" fill="#FFD600" points="30 3 30 0 20 0 20 3"></polygon>
                        <polygon id="Path" fill-opacity="0.12" fill="#FFFFFF" points="20 3 20 0 10 0 10 3"></polygon>
                    </g>
                    <g id="Group-2" transform="translate(0.000000, 25.500000)">
                        <polygon id="Path" fill="#FFD600" points="20 3 20 0 0 0 0 3"></polygon>
                        <polygon id="Path" fill-opacity="0.12" fill="#FFFFFF" points="30 3 30 0 20 0 20 3"></polygon>
                    </g>
                    <g id="Group-2" transform="translate(0.000000, 32.500000)">
                        <polygon id="Path" fill="#FFD600" points="10 3 10 0 0 0 0 3"></polygon>
                        <polygon id="Path" fill="#FFD600" points="30 3 30 0 20 0 20 3"></polygon>
                        <polygon id="Path" fill-opacity="0.12" fill="#FFFFFF" points="20 3 20 0 10 0 10 3"></polygon>
                    </g>
                    <g id="Group-2" transform="translate(0.000000, 39.500000)">
                        <polygon id="Path" fill="#FFD600" points="10 3 10 0 0 0 0 3"></polygon>
                        <polygon id="Path" fill="#FFD600" points="30 3 30 0 20 0 20 3"></polygon>
                        <polygon id="Path" fill-opacity="0.12" fill="#FFFFFF" points="20 3 20 0 10 0 10 3"></polygon>
                    </g>
                    <rect id="Rectangle" fill="#4285F4" x="14" y="0" width="3" height="54"></rect>
                </g>
            </g>
        </g>
    </g>
</svg>